HIERARCHY
ROOT root
{
	OFFSET	0	13.1	24.9
	CHANNELS 6  Xposition Yposition Zposition Xrotation Yrotation Zrotation
	JOINT spine_1
	{
		OFFSET	0	9.99999	0
		CHANNELS 3  Xrotation Yrotation Zrotation
		JOINT spine_2
		{
			OFFSET	0	112	-10
			CHANNELS 3  Xrotation Yrotation Zrotation
			JOINT spine_3
			{
				OFFSET	0	206.5	19.3
				CHANNELS 3  Xrotation Yrotation Zrotation
				JOINT spine_4
				{
					OFFSET	0	110.4	14.6
					CHANNELS 3  Xrotation Yrotation Zrotation
					JOINT neck_1
					{
						OFFSET	0	71.8	-50.3
						CHANNELS 3  Xrotation Yrotation Zrotation
						JOINT neck_2
						{
							OFFSET	0	86.2	-25.8
							CHANNELS 3  Xrotation Yrotation Zrotation
							JOINT head_ee
							{
								OFFSET	0	179.8	-8.7
								CHANNELS 3  Xrotation Yrotation Zrotation
								End Site
								{
									OFFSET	1	0	0
								}
							}
						}
					}
					JOINT left_clavicle
					{
						OFFSET	-43.2	22.4	-70.8
						CHANNELS 3  Xrotation Yrotation Zrotation
						JOINT left_shoulder
						{
							OFFSET	-93.9	-5.79999	48.7
							CHANNELS 3  Xrotation Yrotation Zrotation
							JOINT left_elbow
							{
								OFFSET	-291.4	-30.8	15.2
								CHANNELS 3  Xrotation Yrotation Zrotation
								JOINT left_lowarm_twist
								{
									OFFSET	-110.7	-3.89999	13.6
									CHANNELS 3  Xrotation Yrotation Zrotation
									JOINT left_hand
									{
										OFFSET	-110.7	-3.89999	13.6
										CHANNELS 3  Xrotation Yrotation Zrotation
										JOINT left_ee
										{
											OFFSET	-80.8	-5.10001	12.1
											CHANNELS 3  Xrotation Yrotation Zrotation
											End Site
											{
												OFFSET	1	0	0
											}
										}
									}
								}
							}
						}
					}
					JOINT right_clavicle
					{
						OFFSET	43.2	22.4	-70.8
						CHANNELS 3  Xrotation Yrotation Zrotation
						JOINT right_shoulder
						{
							OFFSET	93.9	-5.79999	48.7
							CHANNELS 3  Xrotation Yrotation Zrotation
							JOINT right_elbow
							{
								OFFSET	291.4	-30.8	15.2
								CHANNELS 3  Xrotation Yrotation Zrotation
								JOINT right_lowarm_twist
								{
									OFFSET	110.7	-3.89999	13.6
									CHANNELS 3  Xrotation Yrotation Zrotation
									JOINT right_hand
									{
										OFFSET	110.7	-3.89999	13.6
										CHANNELS 3  Xrotation Yrotation Zrotation
										JOINT right_ee
										{
											OFFSET	80.8	-5.10001	12.1
											CHANNELS 3  Xrotation Yrotation Zrotation
											End Site
											{
												OFFSET	1	0	0
											}
										}
									}
								}
							}
						}
					}
				}
			}
		}
	}
	JOINT left_hip
	{
		OFFSET	-82.8	-127.5	0.300001
		CHANNELS 3  Xrotation Yrotation Zrotation
		JOINT left_knee
		{
			OFFSET	-28.2	-396.7	2.2
			CHANNELS 3  Xrotation Yrotation Zrotation
			JOINT left_ankle
			{
				OFFSET	-11.7	-411.3	35.4
				CHANNELS 3  Xrotation Yrotation Zrotation
				JOINT left_toes
				{
					OFFSET	0	-60	-88.6
					CHANNELS 3  Xrotation Yrotation Zrotation
					JOINT left_foot_ee
					{
						OFFSET	-22.5	-16.5	-42.2
						CHANNELS 3  Xrotation Yrotation Zrotation
						End Site
						{
							OFFSET	1	0	0
						}
					}
				}
			}
		}
	}
	JOINT right_hip
	{
		OFFSET	82.8	-127.5	0.300001
		CHANNELS 3  Xrotation Yrotation Zrotation
		JOINT right_knee
		{
			OFFSET	28.2	-396.7	2.2
			CHANNELS 3  Xrotation Yrotation Zrotation
			JOINT right_ankle
			{
				OFFSET	11.7	-411.3	35.4
				CHANNELS 3  Xrotation Yrotation Zrotation
				JOINT right_toes
				{
					OFFSET	0	-60	-88.6
					CHANNELS 3  Xrotation Yrotation Zrotation
					JOINT right_foot_ee
					{
						OFFSET	22.5	-16.5	-42.2
						CHANNELS 3  Xrotation Yrotation Zrotation
						End Site
						{
							OFFSET	1	0	0
						}
					}
				}
			}
		}
	}
}
MOTION
Frames: 13
Frame Time: 0.02
2818.88170656 710.177 -1588.4903541 19.3760456029 73.7646202986 -14.0815340229 -0.686668 -0.188108 -1.52185 -0.685384 -0.0908992 -1.53074 -0.682076 0.250929 -1.51277 -0.68527 0.00889595 -1.53341 -14.842 6.58226 6.60693 -14.7791 8.64598 8.39133 -0.0 0.0 -0.0 3.73485 13.1396 7.72276 1.64059 -26.6591 58.3089 1.26175 -32.0053 0.361877 -27.8968 -1.76531 3.06309 -1.16909 23.8379 2.78419 -0.0 0.0 -0.0 4.033 9.49436 -7.20876 -7.2228 20.0912 -67.2106 0.64446 17.7056 -0.100377 42.5667 0.489457 5.29232 1.00196 -2.84564 -7.85428 0.0 0.0 0.0 -3.617 17.6728 -2.36469 4.11493 -0.191193 -0.602277 27.4384 9.98157 -3.61512 -18.3507 0.0 0.0 -0.0 0.0 -0.0 24.6689 27.1655 -19.039 -62.8762 2.51844 -8.83449 33.0071 -22.9343 4.39457 -10.8022 0.0 0.0 0.0 0.0 0.0 
2807.41978643 709.379 -1572.77445196 20.7772470834 75.0759869715 -15.5611403996 -0.643804 -0.127639 -1.48752 -0.642573 -0.0327362 -1.49263 -0.640944 0.298155 -1.46292 -0.643925 0.0633989 -1.49164 -13.9816 6.83689 6.21298 -13.935 9.24977 8.03232 -0.0 0.0 -0.0 3.57484 12.8227 7.44748 2.08912 -28.3519 57.5156 1.39254 -34.5969 0.433706 -28.4025 -1.81045 3.10962 -1.46535 21.7092 0.127758 -0.0 0.0 -0.0 3.59058 9.44026 -6.29642 -8.80979 19.161 -67.5982 0.448495 12.5262 -0.0492225 43.1855 0.525237 5.36293 1.03917 -2.6049 -8.00726 0.0 0.0 0.0 -4.47537 19.7013 -1.30197 4.95416 -0.23548 -0.723371 30.3038 11.2134 -3.936 -18.582 0.0 0.0 -0.0 0.0 -0.0 24.6443 26.4028 -18.4959 -56.538 1.83798 -8.13311 29.6494 -26.4935 4.10433 -11.9238 0.0 0.0 0.0 0.0 0.0 
2791.54865944 712.839 -1555.13982894 24.4397274415 77.0640628388 -18.9999414638 -0.484469 -0.183033 -1.58684 -0.483072 -0.0816998 -1.59527 -0.479928 0.26867 -1.57461 -0.483388 0.0166502 -1.59728 -14.3762 7.04722 6.64468 -14.3198 9.44581 8.53908 -0.0 0.0 -0.0 2.54232 13.1603 5.74538 4.45494 -28.952 60.0566 1.5225 -37.0212 0.50976 -30.3831 -1.9912 3.28799 -1.80685 17.868 -3.69586 -0.0 0.0 -0.0 3.18872 8.55745 -5.53549 -9.92401 18.1766 -67.9973 0.270275 7.62595 -0.0180131 43.9747 0.57198 5.45243 0.995696 -2.10337 -7.51541 0.0 0.0 0.0 -5.92963 18.6875 -1.30645 5.52632 -0.266692 -0.80556 29.3128 11.6544 -3.83133 -18.1728 0.0 0.0 -0.0 0.0 -0.0 23.2769 27.3951 -18.7616 -49.8597 1.20997 -7.31866 25.0896 -27.711 3.57912 -12.0912 0.0 0.0 0.0 0.0 0.0 
2778.94566197 714.547 -1541.07014944 26.725359542 77.9929987235 -21.1088072705 -0.460852 -0.19247 -1.7419 -0.459167 -0.0812552 -1.75062 -0.455656 0.302315 -1.72624 -0.459814 0.0259372 -1.75231 -14.5993 7.2083 6.91982 -14.5367 9.6214 8.86916 -0.0 0.0 -0.0 1.67665 13.4231 4.33513 6.65221 -29.4179 61.5593 1.62018 -38.7471 0.569747 -31.741 -2.11865 3.40664 -2.05302 15.3301 -6.43714 -0.0 0.0 -0.0 2.92433 8.01201 -5.03631 -10.5599 17.5061 -68.5433 0.163914 4.64226 -0.00664406 44.6473 0.612793 5.52821 0.911471 -1.81975 -6.83732 0.0 0.0 0.0 -7.5612 18.9556 -0.737378 5.95652 -0.290701 -0.867154 29.5081 12.4001 -3.85775 -17.732 0.0 0.0 -0.0 0.0 -0.0 25.3604 26.6734 -19.1489 -43.5645 0.708973 -6.48993 21.7038 -28.6729 3.16303 -12.3052 0.0 0.0 0.0 0.0 0.0 
2757.67101654 711.866 -1527.75502286 33.8402088576 78.4226217114 -28.5150861471 -0.38947 -0.400038 -1.93411 -0.387431 -0.276179 -1.95563 -0.376585 0.153967 -1.96902 -0.38196 -0.158874 -1.96863 -16.9578 7.29511 7.46658 -16.8985 9.83115 9.63254 -0.0 0.0 -0.0 0.982229 13.8566 3.23432 10.9202 -30.3819 63.5046 1.7113 -40.2854 0.627731 -33.3813 -2.27633 3.54593 -2.35319 12.2217 -9.88273 -0.0 0.0 -0.0 2.33349 7.87688 -3.83824 -13.4502 16.0133 -68.2596 0.202198 5.71997 -0.0101014 46.3054 0.717187 5.71294 0.590247 -3.27831 -5.28472 0.0 0.0 0.0 -11.1378 19.9686 0.338439 6.69363 -0.332914 -0.972273 33.3834 14.9107 -4.29308 -17.3331 0.0 0.0 -0.0 0.0 -0.0 25.7334 24.6014 -17.2944 -35.6807 0.215085 -5.38419 13.5063 -27.8483 2.01934 -13.3581 0.0 0.0 0.0 0.0 0.0 
2746.77524414 710.575 -1522.58143666 33.3295741464 77.8262721085 -27.9178465592 -0.376004 -0.441639 -2.03586 -0.373752 -0.311225 -2.05982 -0.360979 0.141742 -2.07837 -0.366958 -0.188204 -2.07468 -17.661 7.18665 6.9152 -17.6364 10.0319 9.15338 -0.0 0.0 -0.0 1.09223 13.6437 3.39489 12.302 -30.1924 63.6821 1.73995 -40.7551 0.646349 -33.9205 -2.32903 3.59073 -2.45753 11.3497 -10.9981 -0.0 0.0 -0.0 2.02887 7.90385 -3.21277 -14.1067 15.452 -67.5942 0.221265 6.25527 -0.0120903 46.9473 0.759038 5.78364 0.492205 -3.70302 -4.80657 0.0 0.0 0.0 -12.0907 20.3083 0.984031 6.6749 -0.331825 -0.969609 35.1638 15.0269 -4.4749 -17.1486 0.0 0.0 -0.0 0.0 -0.0 26.341 24.6772 -16.4082 -33.3166 0.0971886 -5.04071 11.1131 -27.7349 1.67342 -13.3642 0.0 0.0 0.0 0.0 0.0 
2735.14349154 707.792 -1522.32388565 29.8342324703 76.1582217705 -24.4396350009 -0.310463 -0.394634 -2.17172 -0.307875 -0.255676 -2.19241 -0.29642 0.222237 -2.19605 -0.303128 -0.127291 -2.20359 -18.4375 7.351 7.82202 -18.3808 9.97275 10.1375 -0.0 0.0 -0.0 0.6175 13.6896 2.623 13.5901 -30.7921 64.4651 1.77979 -41.3975 0.67253 -34.2342 -2.35987 3.61656 -2.54304 10.7039 -11.8845 -0.0 0.0 -0.0 1.85874 7.88927 -2.86622 -14.6072 15.1298 -67.5907 0.221751 6.26889 -0.0121433 47.1857 0.774783 5.80978 0.424194 -4.03234 -4.49016 0.0 0.0 0.0 -13.2057 20.3894 1.11881 6.52467 -0.323118 -0.948224 35.7954 16.0304 -4.55142 -17.0496 0.0 0.0 -0.0 0.0 -0.0 26.4512 23.7437 -15.8745 -31.0689 -0.00164127 -4.71 9.57866 -27.376 1.44599 -13.6449 0.0 0.0 0.0 0.0 0.0 
2707.43285446 702.528 -1525.41409525 29.6063426852 75.1822411305 -24.4441607835 -0.230349 -0.471121 -2.09514 -0.22797 -0.336879 -2.12085 -0.213906 0.124382 -2.14383 -0.220255 -0.215678 -2.13658 -18.9861 7.29799 7.89334 -18.9306 9.91745 10.2423 -0.0 0.0 -0.0 1.06846 13.6783 3.35907 15.8771 -30.9611 64.6486 1.90788 -43.379 0.75889 -34.7146 -2.40739 3.6558 -2.62351 9.95661 -12.7963 -0.0 0.0 -0.0 1.46836 7.55433 -2.10116 -16.0509 14.4899 -67.4739 0.209109 5.91411 -0.0108017 47.5524 0.799213 5.84986 0.335882 -4.48938 -4.09282 0.0 0.0 0.0 -14.7947 20.904 1.88871 5.95148 -0.290417 -0.866434 37.3644 16.2264 -4.70707 -16.8952 0.0 0.0 -0.0 0.0 -0.0 27.581 24.138 -15.3915 -26.1926 -0.170969 -3.981 8.26495 -26.7586 1.24789 -13.9713 0.0 0.0 0.0 0.0 0.0 
2691.59708676 696.785 -1524.59762182 26.4274113815 73.4521523119 -21.4551374282 -0.186084 -0.260771 -2.10786 -0.183621 -0.126145 -2.12017 -0.177594 0.328907 -2.09831 -0.183738 -0.00653223 -2.12391 -18.8074 7.25565 7.83808 -18.7506 9.83737 10.1548 -0.0 0.0 -0.0 1.17783 13.5339 3.52546 16.3354 -30.7612 65.0861 1.99543 -44.663 0.819735 -34.8246 -2.41833 3.66473 -2.70802 9.80476 -13.4325 -0.0 0.0 -0.0 1.29697 7.42725 -1.76428 -16.2158 14.3702 -67.5542 0.207213 5.86086 -0.0106073 47.8329 0.818071 5.88041 0.325833 -4.45409 -4.01213 0.0 0.0 0.0 -16.1443 20.9942 3.18088 4.21646 -0.196456 -0.61696 40.0141 15.1449 -4.93612 -16.4697 0.0 0.0 -0.0 0.0 -0.0 28.4336 24.901 -15.435 -20.1866 -0.293374 -3.0679 8.69537 -25.2942 1.30035 -14.5508 0.0 0.0 0.0 0.0 0.0 
2675.27424132 691.264 -1528.86403902 23.4730231896 71.9358626482 -18.7142727753 -0.153117 -0.061701 -2.10704 -0.15065 0.0724699 -2.10669 -0.152204 0.519293 -2.043 -0.157978 0.190197 -2.09934 -18.8638 7.18417 7.76701 -18.8085 9.74556 10.0669 -0.0 0.0 -0.0 1.53676 13.7555 4.13106 17.1988 -30.6404 65.6488 2.08489 -45.9186 0.883315 -34.9292 -2.42873 3.6732 -2.7839 9.72749 -13.9751 -0.0 0.0 -0.0 1.05082 7.34726 -1.27067 -16.5527 14.2653 -67.859 0.199906 5.65557 -0.0098742 47.9592 0.826613 5.89414 0.306926 -4.46738 -3.89281 0.0 0.0 0.0 -16.8773 20.9024 4.00784 2.92638 -0.131523 -0.429719 41.9888 14.1675 -5.09416 -16.1431 0.0 0.0 -0.0 0.0 -0.0 28.5029 25.7533 -15.4106 -15.6368 -0.322079 -2.37059 8.55238 -23.9144 1.27036 -15.0134 0.0 0.0 0.0 0.0 0.0 
2634.1047703 678.419 -1527.71194636 22.7721193221 73.3622573469 -18.7218078542 -0.371214 -0.214649 -2.14871 -0.368649 -0.0775191 -2.158 -0.364253 0.391444 -2.12364 -0.370543 0.0512238 -2.15879 -18.2305 6.81656 7.764 -18.1512 8.94141 9.8541 -0.0 0.0 -0.0 1.76332 17.9962 4.79284 17.7254 -28.9002 66.3628 2.68918 -53.0961 1.34378 -35.0796 -2.44372 3.68535 -2.83342 8.51483 -14.94 -0.0 0.0 -0.0 0.849351 8.38485 -0.74883 -16.9605 13.4037 -69.3239 0.268608 7.57945 -0.0177926 48.7899 0.883547 5.98396 0.29139 -5.43258 -4.18374 0.0 0.0 0.0 -18.3915 19.7281 4.7752 3.4339 -0.156563 -0.50355 41.0065 10.2076 -4.9654 -14.865 0.0 0.0 -0.0 0.0 -0.0 28.5664 28.278 -13.3039 -4.46945 -0.158045 -0.667545 8.79159 -17.3857 1.27191 -15.4898 0.0 0.0 0.0 0.0 0.0 
2561.39063594 666.192 -1510.30658533 24.0972198611 78.3256260362 -21.1041261087 -0.368834 -0.410167 -2.29228 -0.36595 -0.263512 -2.31372 -0.353407 0.243011 -2.31596 -0.36087 -0.125699 -2.32528 -13.4856 8.49198 8.00544 -13.3901 11.2276 10.1908 -0.0 0.0 -0.0 -0.297307 21.3493 2.05722 18.1207 -28.9112 75.0406 3.35491 -58.9504 1.89657 -34.8604 -2.42189 3.66763 -2.28365 6.01456 -12.5214 -0.0 0.0 -0.0 -0.349441 9.03596 1.79372 -16.5934 13.9874 -73.7068 0.576331 15.9341 -0.0806606 51.0365 1.04401 6.2227 0.499291 -5.21886 -5.46584 0.0 0.0 0.0 -18.7987 19.0257 5.23265 -2.38922 0.0909738 0.355354 40.7329 0.926013 -4.93222 -11.0919 0.0 0.0 -0.0 0.0 -0.0 27.4332 29.7087 -10.309 -4.18831 -0.149644 -0.625216 7.17102 -7.0221 1.02903 -16.3308 0.0 0.0 0.0 0.0 0.0 
2530.34609555 665.471 -1507.73070486 24.5473663821 79.3194473432 -22.0457947358 -0.381874 -0.457046 -2.14586 -0.379369 -0.319606 -2.17058 -0.365506 0.157696 -2.1883 -0.372138 -0.189799 -2.18575 -11.9761 7.94437 6.59912 -11.9166 10.8188 8.55605 -0.0 0.0 -0.0 -1.52931 20.3521 0.141617 16.3081 -29.6023 76.7264 3.14793 -57.3165 1.72077 -33.3847 -2.27666 3.54621 -1.67616 3.82835 -9.4968 -0.0 0.0 -0.0 -0.221487 9.30566 1.5619 -15.4681 14.8868 -73.6048 0.755514 20.5188 -0.136749 51.6852 1.09208 6.29046 0.690799 -3.38117 -5.99432 0.0 0.0 0.0 -19.9993 19.9771 5.94861 -6.47805 0.212003 0.971059 39.9685 -2.78998 -4.89955 -8.82579 0.0 0.0 -0.0 0.0 -0.0 27.006 29.6924 -10.4008 -6.12816 -0.20337 -0.918057 7.29393 -4.78625 1.04779 -17.4963 0.0 0.0 0.0 0.0 0.0 
